<?xml version="1.0" standalone="no"?>
<!DOCTYPE svg PUBLIC "-//W3C//DTD SVG 20010904//EN"
 "http://www.w3.org/TR/2001/REC-SVG-20010904/DTD/svg10.dtd">
<svg version="1.0" xmlns="http://www.w3.org/2000/svg"
 width="512.000000pt" height="160.000000pt" viewBox="0 0 512.000000 160.000000"
 preserveAspectRatio="xMidYMid meet">

<g transform="translate(0.000000,160.000000) scale(0.100000,-0.100000)"
fill="#000000" stroke="none">
<path d="M2150 1377 c56 -44 66 -130 26 -222 -30 -67 -102 -175 -212 -319 -46
-59 -84 -112 -84 -116 0 -5 33 -38 73 -74 90 -82 184 -191 220 -258 28 -54 35
-115 17 -162 l-10 -26 1470 0 1470 0 0 595 0 595 -1492 0 c-1176 -1 -1490 -3
-1478 -13z m868 -312 c97 -41 152 -140 152 -274 0 -135 -39 -218 -128 -273
-29 -18 -51 -23 -112 -23 -65 0 -82 4 -123 28 -90 53 -135 164 -124 300 10
121 69 211 159 244 47 17 133 16 176 -2z m1640 -11 c95 -47 132 -122 132 -269
0 -51 -5 -107 -12 -126 -45 -132 -166 -194 -300 -155 -70 20 -138 90 -159 163
-17 61 -17 174 0 233 43 152 200 223 339 154z m-1998 -29 l0 -45 -130 0 -130
0 0 -240 0 -240 -60 0 -60 0 0 285 0 285 190 0 190 0 0 -45z m915 26 c51 -23
75 -50 85 -98 12 -51 -4 -106 -39 -135 -28 -24 -28 -25 -7 -34 32 -14 66 -72
66 -113 -1 -55 -32 -115 -76 -142 -36 -22 -51 -24 -196 -27 l-158 -4 0 286 0
286 143 0 c116 0 149 -4 182 -19z m305 -96 l0 -115 110 0 110 0 0 115 0 115
65 0 65 0 0 -285 0 -285 -65 0 -65 0 0 125 0 125 -110 0 -110 0 0 -125 0 -125
-60 0 -60 0 0 285 0 285 60 0 60 0 0 -115z m1115 -72 c-4 -104 -8 -194 -10
-200 -3 -8 -22 -13 -49 -13 -43 0 -45 1 -50 33 -3 17 -7 107 -9 200 l-4 167
64 0 64 0 -6 -187z m-17 -279 c15 -10 22 -25 22 -49 0 -58 -69 -86 -110 -45
-58 58 20 142 88 94z"/>
<path d="M2880 963 c-48 -25 -64 -63 -68 -164 -5 -112 18 -172 74 -195 103
-43 179 65 159 226 -15 119 -83 174 -165 133z"/>
<path d="M4503 965 c-52 -22 -68 -65 -68 -180 0 -87 3 -105 23 -137 31 -50 82
-67 134 -45 57 24 73 63 73 182 0 117 -16 158 -70 181 -42 17 -51 17 -92 -1z"/>
<path d="M3370 910 l0 -70 63 0 c77 0 107 17 107 63 0 18 -4 37 -8 44 -12 19
-60 33 -113 33 l-49 0 0 -70z"/>
<path d="M3370 675 l0 -75 73 0 c85 0 107 14 107 71 0 60 -29 79 -119 79 l-61
0 0 -75z"/>
<path d="M833 1347 c-18 -7 -42 -22 -55 -34 -21 -21 -21 -22 -2 -28 44 -14 69
-32 88 -65 19 -31 21 -52 21 -190 0 -160 -8 -200 -46 -223 -48 -30 -146 93
-266 331 -42 84 -84 157 -94 163 -10 5 -94 9 -188 9 -142 0 -172 -3 -186 -16
-10 -10 -13 -24 -9 -38 13 -43 132 -285 194 -391 190 -333 331 -490 515 -575
110 -52 171 -64 308 -65 113 0 120 1 138 24 13 15 19 39 19 70 0 95 41 171 91
171 16 0 58 -36 134 -115 148 -152 153 -154 363 -155 175 0 220 9 242 50 9 17
7 29 -10 63 -33 63 -118 163 -210 246 -89 80 -112 118 -100 161 4 15 64 102
133 194 69 92 139 196 157 230 34 67 42 123 19 137 -8 5 -107 9 -220 9 -172 0
-209 -3 -219 -15 -7 -8 -32 -58 -56 -111 -77 -173 -190 -341 -247 -371 -30
-15 -32 -15 -54 11 -26 31 -26 29 -24 276 2 208 -3 228 -59 247 -46 16 -334
16 -377 0z"/>
</g>
</svg>
